<?xml version="1.0" standalone="no"?>
<!DOCTYPE svg PUBLIC "-//W3C//DTD SVG 20010904//EN"
 "http://www.w3.org/TR/2001/REC-SVG-20010904/DTD/svg10.dtd">
<svg version="1.0" xmlns="http://www.w3.org/2000/svg"
 width="512.000000pt" height="512.000000pt" viewBox="0 0 512.000000 512.000000"
 preserveAspectRatio="xMidYMid meet">

<g transform="translate(0.000000,512.000000) scale(0.100000,-0.100000)"
fill="#000000" stroke="none">
<path d="M1028 5110 c-47 -14 -96 -50 -118 -86 -30 -47 -76 -186 -97 -291 -24
-117 -24 -405 0 -508 l16 -70 -44 -66 c-192 -288 -269 -585 -245 -950 21 -313
73 -520 187 -740 135 -262 341 -460 622 -600 92 -45 346 -138 381 -139 39 -1
42 -14 21 -86 -27 -94 -40 -175 -42 -266 l-2 -77 -50 -11 c-101 -21 -219 -24
-299 -6 -138 31 -245 116 -401 316 -159 203 -268 300 -407 360 -77 34 -169 34
-227 1 -100 -57 -135 -182 -81 -286 24 -44 56 -70 128 -103 73 -33 121 -79
247 -237 210 -262 382 -384 633 -448 72 -18 113 -22 272 -22 l187 0 3 -222 3
-221 30 -44 c99 -141 313 -115 374 45 7 19 11 199 11 527 1 529 3 558 50 650
11 21 43 66 70 100 62 74 80 114 80 178 0 63 -34 128 -86 165 -34 24 -67 33
-212 57 -211 36 -311 61 -427 107 -423 167 -622 498 -642 1069 -12 329 50 515
248 741 45 51 69 106 69 155 0 14 -14 70 -31 124 -24 78 -32 123 -36 214 -5
108 7 224 25 242 11 11 170 -46 282 -102 56 -28 151 -82 213 -120 150 -94 151
-94 362 -46 216 49 323 60 575 60 255 0 358 -12 568 -61 67 -16 146 -28 184
-28 l66 0 192 130 c296 200 349 251 350 332 1 23 5 17 26 -32 70 -170 88 -371
45 -525 -11 -41 -27 -99 -36 -128 -11 -42 -12 -65 -4 -102 11 -51 25 -73 112
-176 67 -79 146 -233 174 -339 15 -58 18 -108 18 -295 0 -193 -4 -241 -23
-338 -47 -236 -126 -401 -255 -539 -120 -127 -240 -199 -440 -264 -91 -30
-297 -71 -417 -84 -36 -4 -83 -15 -105 -24 -71 -31 -125 -113 -125 -191 0 -52
22 -100 77 -166 31 -38 70 -98 87 -134 l31 -65 5 -540 5 -540 24 -42 c70 -122
245 -143 337 -41 60 65 59 52 62 558 4 500 -2 599 -43 729 -13 41 -22 77 -20
81 2 4 30 12 62 20 87 19 247 77 348 125 137 65 267 156 375 261 263 255 402
583 441 1039 32 376 -42 690 -232 979 l-52 79 12 61 c19 93 26 350 12 447 -20
140 -81 343 -98 326 -3 -4 -24 5 -47 18 -76 45 -156 58 -306 52 -136 -6 -214
-21 -350 -67 -82 -29 -237 -100 -302 -140 l-49 -30 -97 20 c-213 43 -337 54
-607 55 -274 0 -380 -9 -594 -50 l-123 -24 -95 55 c-186 110 -395 197 -547
228 -79 17 -242 20 -288 6z"/>
</g>
</svg>
